<svg width="512" height="512" viewBox="0 0 512 512" style="color:#E8403E" xmlns="http://www.w3.org/2000/svg" class="h-full w-full"><rect width="512" height="512" x="0" y="0" rx="30" fill="transparent" stroke="transparent" stroke-width="0" stroke-opacity="100%" paint-order="stroke"></rect><svg width="256px" height="256px" viewBox="0 0 1024 1024" fill="#E8403E" x="128" y="128" role="img" style="display:inline-block;vertical-align:middle" xmlns="http://www.w3.org/2000/svg"><g fill="#E8403E"><path fill="currentColor" fill-rule="evenodd" d="M512 64c247.4 0 448 200.6 448 448S759.4 960 512 960S64 759.4 64 512S264.6 64 512 64Zm127.978 274.82l-.034.006c-.023.007-.042.018-.083.059L512 466.745l-127.86-127.86c-.042-.041-.06-.052-.084-.059a.118.118 0 0 0-.07 0c-.022.007-.041.018-.082.059l-45.02 45.019c-.04.04-.05.06-.058.083a.118.118 0 0 0 0 .07l.01.022a.268.268 0 0 0 .049.06L466.745 512l-127.86 127.862c-.041.04-.052.06-.059.083a.118.118 0 0 0 0 .07c.007.022.018.041.059.082l45.019 45.02c.04.04.06.05.083.058a.118.118 0 0 0 .07 0c.022-.007.041-.018.082-.059L512 557.254l127.862 127.861c.04.041.06.052.083.059a.118.118 0 0 0 .07 0c.022-.007.041-.018.082-.059l45.02-45.019c.04-.04.05-.06.058-.083a.118.118 0 0 0 0-.07l-.01-.022a.268.268 0 0 0-.049-.06L557.254 512l127.861-127.86c.041-.042.052-.06.059-.084a.118.118 0 0 0 0-.07c-.007-.022-.018-.041-.059-.082l-45.019-45.02a.199.199 0 0 0-.083-.058a.118.118 0 0 0-.07 0Z"/></g></svg></svg>